<svg aria-hidden="true" style="position: absolute; width: 0; height: 0; overflow: hidden;" version="1.1" xmlns="http://www.w3.org/2000/svg" xmlns:xlink="http://www.w3.org/1999/xlink">
<defs>
<symbol id="favorites" viewBox="0 0 55 32">
<path d="M27.431 32c-0.063 0-0.138 0.001-0.213 0.001-11.26 0-21.154-5.851-26.808-14.678l-0.076-0.127c-0.21-0.341-0.334-0.754-0.334-1.196s0.124-0.855 0.34-1.206l-0.006 0.010c5.736-8.955 15.634-14.805 26.898-14.805 0.070 0 0.14 0 0.209 0.001l-0.011-0c0.059-0 0.129-0.001 0.199-0.001 11.264 0 21.162 5.85 26.822 14.678l0.076 0.127c0.21 0.341 0.334 0.754 0.334 1.196s-0.124 0.855-0.34 1.206l0.006-0.010c-5.73 8.954-15.624 14.805-26.884 14.805-0.075 0-0.15-0-0.224-0.001l0.012 0zM5.015 16.004c5.022 6.954 13.106 11.427 22.235 11.427 0.064 0 0.128-0 0.191-0.001l-0.010 0c0.054 0 0.118 0.001 0.182 0.001 9.129 0 17.213-4.473 22.18-11.347l0.055-0.080c-5.018-6.959-13.102-11.436-22.232-11.436-0.065 0-0.129 0-0.194 0.001l0.010-0c-0.055-0-0.119-0.001-0.184-0.001-9.13 0-17.214 4.477-22.177 11.355l-0.055 0.081z"></path>
<path d="M27.431 22.862c-3.787 0-6.858-3.070-6.858-6.858s3.070-6.858 6.858-6.858c3.787 0 6.858 3.070 6.858 6.858v0c0 3.787-3.070 6.858-6.858 6.858v0zM27.431 13.716c-1.264 0-2.289 1.025-2.289 2.289s1.025 2.289 2.289 2.289c1.264 0 2.289-1.025 2.289-2.289v0c-0.005-1.262-1.027-2.284-2.288-2.289h-0z"></path>
</symbol>
<symbol id="likes" viewBox="0 0 35 32">
<path d="M17.388 32c-0.369-0-0.703-0.15-0.946-0.391l-13.308-13.308c-1.911-1.936-3.091-4.597-3.091-7.534 0-5.924 4.802-10.726 10.726-10.726 2.507 0 4.814 0.86 6.64 2.302l-0.023-0.017c1.811-1.445 4.133-2.319 6.66-2.319 5.921 0 10.721 4.8 10.721 10.721 0 2.957-1.197 5.634-3.133 7.574l-13.302 13.307c-0.242 0.241-0.576 0.391-0.945 0.391h-0zM10.71 2.657c-0.006-0-0.014-0-0.022-0-4.442 0-8.042 3.601-8.042 8.042 0 2.233 0.91 4.253 2.379 5.71l0.001 0.001 12.362 12.389 12.362-12.389c1.454-1.458 2.354-3.47 2.354-5.692 0-4.451-3.608-8.059-8.059-8.059-2.229 0-4.246 0.905-5.705 2.367l-0 0c-0.254 0.227-0.583 0.376-0.945 0.407l-0.006 0c-0.009 0-0.019 0-0.029 0-0.365 0-0.696-0.145-0.939-0.381l0 0c-1.459-1.466-3.479-2.374-5.711-2.375h-0z"></path>
</symbol>
<symbol id="reviews" viewBox="0 0 33 32">
<path d="M18.735 8.691c0.558-0.908 0.889-2.008 0.889-3.185 0-0.425-0.043-0.841-0.125-1.242l0.007 0.040c-0.296-1.529-1.214-2.8-2.474-3.562l-0.024-0.013c-2.628-1.561-6.141-0.52-7.806 2.3l-1.202 2.030 9.534 5.662zM16.539 6.906l-4.731-2.81c0.947-1.249 2.571-1.702 3.804-0.973 0.619 0.38 1.058 1 1.189 1.728l0.002 0.016c0.036 0.184 0.057 0.395 0.057 0.611 0 0.519-0.119 1.011-0.331 1.449l0.009-0.020z"></path>
<path d="M0.786 28.066l0.817 0.406 7.947-4.293 6.583-11.069-9.565-5.667-6.568 11.074 0.042 8.238c0.007 0.553 0.3 1.035 0.738 1.308l0.007 0.004zM7.551 11.246l4.772 2.831-4.772 8.025-4.746 2.566-0.026-5.412z"></path>
<path d="M1.389 29.226h30.527c0.767 0 1.389 0.622 1.389 1.389v-0.005c0 0.767-0.622 1.39-1.389 1.39h-30.527c-0.767 0-1.389-0.622-1.389-1.389v0.005c0-0.767 0.622-1.39 1.389-1.39z"></path>
</symbol>
</defs>
</svg>
