<svg aria-hidden="true" style="position: absolute; width: 0; height: 0; overflow: hidden;" version="1.1" xmlns="http://www.w3.org/2000/svg" xmlns:xlink="http://www.w3.org/1999/xlink">
<defs>
<symbol id="favorites" viewBox="0 0 55 32">
<path d="M27.431 32c-0.063 0-0.138 0.001-0.213 0.001-11.26 0-21.154-5.851-26.808-14.678l-0.076-0.127c-0.21-0.341-0.334-0.754-0.334-1.196s0.124-0.855 0.34-1.206l-0.006 0.010c5.736-8.955 15.634-14.805 26.898-14.805 0.070 0 0.14 0 0.209 0.001l-0.011-0c0.059-0 0.129-0.001 0.199-0.001 11.264 0 21.162 5.85 26.822 14.678l0.076 0.127c0.21 0.341 0.334 0.754 0.334 1.196s-0.124 0.855-0.34 1.206l0.006-0.010c-5.73 8.954-15.624 14.805-26.884 14.805-0.075 0-0.15-0-0.224-0.001l0.012 0zM5.015 16.004c5.022 6.954 13.106 11.427 22.235 11.427 0.064 0 0.128-0 0.191-0.001l-0.010 0c0.054 0 0.118 0.001 0.182 0.001 9.129 0 17.213-4.473 22.18-11.347l0.055-0.080c-5.018-6.959-13.102-11.436-22.232-11.436-0.065 0-0.129 0-0.194 0.001l0.010-0c-0.055-0-0.119-0.001-0.184-0.001-9.13 0-17.214 4.477-22.177 11.355l-0.055 0.081z"></path>
<path d="M27.431 22.862c-3.787 0-6.858-3.070-6.858-6.858s3.070-6.858 6.858-6.858c3.787 0 6.858 3.070 6.858 6.858v0c0 3.787-3.070 6.858-6.858 6.858v0zM27.431 13.716c-1.264 0-2.289 1.025-2.289 2.289s1.025 2.289 2.289 2.289c1.264 0 2.289-1.025 2.289-2.289v0c-0.005-1.262-1.027-2.284-2.288-2.289h-0z"></path>
</symbol>
<symbol id="likes" viewBox="0 0 35 32">
<path d="M17.388 32c-0.369-0-0.703-0.15-0.946-0.391l-13.308-13.308c-1.911-1.936-3.091-4.597-3.091-7.534 0-5.924 4.802-10.726 10.726-10.726 2.507 0 4.814 0.86 6.64 2.302l-0.023-0.017c1.811-1.445 4.133-2.319 6.66-2.319 5.921 0 10.721 4.8 10.721 10.721 0 2.957-1.197 5.634-3.133 7.574l-13.302 13.307c-0.242 0.241-0.576 0.391-0.945 0.391h-0zM10.71 2.657c-0.006-0-0.014-0-0.022-0-4.442 0-8.042 3.601-8.042 8.042 0 2.233 0.91 4.253 2.379 5.71l0.001 0.001 12.362 12.389 12.362-12.389c1.454-1.458 2.354-3.47 2.354-5.692 0-4.451-3.608-8.059-8.059-8.059-2.229 0-4.246 0.905-5.705 2.367l-0 0c-0.254 0.227-0.583 0.376-0.945 0.407l-0.006 0c-0.009 0-0.019 0-0.029 0-0.365 0-0.696-0.145-0.939-0.381l0 0c-1.459-1.466-3.479-2.374-5.711-2.375h-0z"></path>
</symbol>
<symbol id="reviews" viewBox="0 0 33 32">
<path d="M18.735 8.691c0.558-0.908 0.889-2.008 0.889-3.185 0-0.425-0.043-0.841-0.125-1.242l0.007 0.040c-0.296-1.529-1.214-2.8-2.474-3.562l-0.024-0.013c-2.628-1.561-6.141-0.52-7.806 2.3l-1.202 2.030 9.534 5.662zM16.539 6.906l-4.731-2.81c0.947-1.249 2.571-1.702 3.804-0.973 0.619 0.38 1.058 1 1.189 1.728l0.002 0.016c0.036 0.184 0.057 0.395 0.057 0.611 0 0.519-0.119 1.011-0.331 1.449l0.009-0.020z"></path>
<path d="M0.786 28.066l0.817 0.406 7.947-4.293 6.583-11.069-9.565-5.667-6.568 11.074 0.042 8.238c0.007 0.553 0.3 1.035 0.738 1.308l0.007 0.004zM7.551 11.246l4.772 2.831-4.772 8.025-4.746 2.566-0.026-5.412z"></path>
<path d="M1.389 29.226h30.527c0.767 0 1.389 0.622 1.389 1.389v-0.005c0 0.767-0.622 1.39-1.389 1.39h-30.527c-0.767 0-1.389-0.622-1.389-1.389v0.005c0-0.767 0.622-1.39 1.389-1.39z"></path>
</symbol>

<symbol id="close" viewBox="0 0 18 18">
<path fill="var(--color6, #000)" d="M15 4.10786L13.8921 3L9.5 7.39214L5.10786 3L4 4.10786L8.39214 8.5L4 12.8921L5.10786 14L9.5 9.60786L13.8921 14L15 12.8921L10.6079 8.5L15 4.10786Z"/>
</symbol>

<symbol id="user-name" viewBox="0 0 18 18">
<path fill="var(--color7, #212121)" d="M9 9C10.6575 9 12 7.6575 12 6C12 4.3425 10.6575 3 9 3C7.3425 3 6 4.3425 6 6C6 7.6575 7.3425 9 9 9ZM9 10.5C6.9975 10.5 3 11.505 3 13.5V14.25C3 14.6625 3.3375 15 3.75 15H14.25C14.6625 15 15 14.6625 15 14.25V13.5C15 11.505 11.0025 10.5 9 10.5Z" />
</symbol>

<symbol id="user-tel" viewBox="0 0 18 18">
<path fill="var(--color7, #212121)" d="M13.9958 11.1226L12.1576 10.9128C11.7162 10.8621 11.282 11.0141 10.9708 11.3253L9.63924 12.6568C7.59123 11.6147 5.91229 9.94302 4.8702 7.88776L6.209 6.54895C6.52018 6.23776 6.67216 5.80355 6.6215 5.36211L6.41163 3.53843C6.32479 2.80751 5.70966 2.25751 4.97151 2.25751H3.71955C2.90179 2.25751 2.22153 2.93777 2.27219 3.75553C2.65574 9.93578 7.59847 14.8713 13.7714 15.2548C14.5892 15.3055 15.2695 14.6252 15.2695 13.8075V12.5555C15.2767 11.8246 14.7267 11.2095 13.9958 11.1226Z" />
</symbol>


<symbol id="user-mail" viewBox="0 0 18 18">
<path fill="var(--color7, #212121)" d="M15 3H3C2.175 3 1.5075 3.675 1.5075 4.5L1.5 13.5C1.5 14.325 2.175 15 3 15H15C15.825 15 16.5 14.325 16.5 13.5V4.5C16.5 3.675 15.825 3 15 3ZM14.7 6.1875L9.3975 9.5025C9.1575 9.6525 8.8425 9.6525 8.6025 9.5025L3.3 6.1875C3.1125 6.0675 3 5.865 3 5.6475C3 5.145 3.5475 4.845 3.975 5.1075L9 8.25L14.025 5.1075C14.4525 4.845 15 5.145 15 5.6475C15 5.865 14.8875 6.0675 14.7 6.1875Z" />
</symbol>

<symbol id="checked" viewBox="0 0 16 15">
<path fill="var(--color5, #fff)" d="M3.95703 7.75166L3.88825 7.68604L3.81923 7.75141L2.93123 8.59258L2.85486 8.66492L2.93097 8.73753L6.42671 12.0724L6.49574 12.1382L6.56476 12.0724L14.069 4.91352L14.1449 4.84116L14.069 4.76881L13.1873 3.92764L13.1183 3.86183L13.0493 3.92761L6.49577 10.1735L3.95703 7.75166Z" stroke="white" stroke-width="0.2"/>
</symbol> 

</defs>
</svg>
